<?xml version="1.0" encoding="utf-8"?>
<!-- Generator: Adobe Illustrator 23.0.1, SVG Export Plug-In . SVG Version: 6.00 Build 0)  -->
<svg version="1.1" id="Calque_1" xmlns="http://www.w3.org/2000/svg" xmlns:xlink="http://www.w3.org/1999/xlink" x="0px" y="0px"
	 width="890.0784302px" height="240px" viewBox="0 0 890.0784302 240" style="enable-background:new 0 0 890.0784302 240;"
	 xml:space="preserve">
<path style="fill:#483E2C;" d="M111.7546387,191.3951569c1.5121231-1.3010101,2.7760315-2.8873138,3.7631912-4.7246857
	c1.2182617-2.2539215,1.8373795-4.7646179,1.8373795-7.463623v-15.2753143c0-2.4136963-0.4793167-4.7360992-1.4208298-6.8930206
	c-0.9386597-2.139801-2.2282486-4.045639-3.8402252-5.6604767c-1.6205444-1.6148376-3.5263977-2.9044342-5.6604919-3.8345337
	c-2.1597672-0.9472046-4.4793091-1.4265289-6.8958588-1.4265289H30.1569195c-2.4165478,0-4.7360916,0.4793243-6.8901577,1.4265289
	c-2.1426525,0.9300995-4.048502,2.219696-5.6633377,3.8345337c-1.6062775,1.6091309-2.8987169,3.5092621-3.8430815,5.6604767
	c-0.9415121,2.1626282-1.4179745,4.4793243-1.4179745,6.8930206v58.2539215c0,2.4136963,0.4764624,4.7303772,1.4208269,6.8872986
	c0.9386597,2.1512146,2.2310991,4.0570679,3.840229,5.6604919c1.6034241,1.6148224,3.5092716,2.9044189,5.6604843,3.8402252
	C25.4208279,239.5206909,27.7403717,240,30.1569195,240h74.0399399c2.4165497,0,4.7360916-0.4793091,6.893013-1.4265289
	c2.1483536-0.9300995,4.0542068-2.2254028,5.6633377-3.8345337c1.6091309-1.6148224,2.9015656-3.5149689,3.8373718-5.6661835
	c0.9443665-2.1512146,1.4236832-4.4679108,1.4236832-6.8872986v-15.2753296c0-3.771759-1.0955811-7.1383667-3.2524948-10.0199738
	C116.8815994,194.3851624,114.5278168,192.5420837,111.7546387,191.3951569z M20.2738953,163.9315338
	c0-2.7161255,0.9728947-5.0670471,2.8930092-6.984314c1.9457912-1.9458008,4.2310982-2.8930054,6.990015-2.8930054h69.3808823
	c2.7589188,0,5.04422,0.9472046,6.9900131,2.8930054c1.9201126,1.9172668,2.893013,4.2681885,2.893013,6.984314v15.2753143
	c0,2.7560577-0.9472198,5.04422-2.893013,6.9900208c-1.9486465,1.9514923-4.2339478,2.8987122-6.9900131,2.8987122H20.2738953
	V163.9315338z M114.0798874,222.1854553c0,2.7560577-0.9443665,5.04422-2.8901596,6.9842987
	c-1.9457932,1.9458008-4.2310944,2.8930206-6.9928665,2.8930206H30.1569195c-2.7589169,0-5.0442238-0.9472198-6.990015-2.8873138
	c-1.9457912-1.9514923-2.8930092-4.2396545-2.8930092-6.9900055v-25.1640625h83.922966
	c2.7560654,0,5.04422,0.9472198,6.9928665,2.8987274c1.9457932,1.9400787,2.8901596,4.228241,2.8901596,6.9900055V222.1854553z
	 M272.7210999,148.9736023c-1.9086914-1.9086914-4.1333618-3.4161835-6.6772461-4.5285187
	c-2.5438538-1.1123505-5.245697-1.6715393-8.1087646-1.6715393h-79.4821625c-2.859848,0-5.5649109,0.5591888-8.1055603,1.6715393
	c-2.543869,1.1123352-4.771759,2.6198273-6.6772461,4.5285187c-1.9087067,1.9087067-3.4194031,4.1333923-4.5317535,6.6804657
	c-1.1123352,2.5406494-1.6683197,5.2457123-1.6683197,8.102356v54.530304c0,2.8562775,0.5559845,5.5617065,1.6683197,8.102005
	c1.1123505,2.5474243,2.6230469,4.77211,4.5317535,6.6808167c1.9054871,1.9086914,4.1333771,3.4158325,6.6772461,4.5281677
	c2.5406494,1.1123352,5.2457123,1.6718903,8.1055603,1.6718903h79.4821625c3.7086487,0,7.2068481-0.927948,10.4946594-2.7842255
	c3.2810364-1.8495026,5.8808899-4.4229736,7.7860107-7.7072144l-6.9928589-3.9753876
	c-1.168335,2.013916-2.757843,3.6002197-4.7685547,4.7649841c-2.0142517,1.1718903-4.1893616,1.7510681-6.5192566,1.7510681
	h-79.4821625c-3.603775,0-6.6772461-1.2703247-9.2211151-3.8177643c-2.5406494-2.5402985-3.8141937-5.6141205-3.8141937-9.2143402
	v-20.5089111h92.5174713c2.8630676,0,5.5649109-0.5595551,8.1087646-1.6718903
	c2.5438843-1.1123505,4.7685547-2.6194763,6.6772461-4.528183c1.9051514-1.9087067,3.4158325-4.1333771,4.5281982-6.6740417
	c1.1155396-2.5470734,1.671875-5.2457123,1.671875-8.1087646V163.756424c0-2.8566437-0.5563354-5.5617065-1.671875-8.102356
	C276.1369324,153.1069946,274.6262512,150.882309,272.7210999,148.9736023z M270.9703979,176.7949371
	c0,3.6002197-1.2703247,6.6740417-3.8141785,9.2211151c-2.5438843,2.5406494-5.6177063,3.8109741-9.2211304,3.8109741h-92.5174713
	V163.756424c0-3.6005707,1.2735443-6.6740417,3.8141937-9.2146912c2.543869-2.5470886,5.6173401-3.8174133,9.2211151-3.8174133
	h79.4821625c3.6034241,0,6.6772461,1.2703247,9.2211304,3.8174133c2.5438538,2.5406494,3.8141785,5.6141205,3.8141785,9.2146912
	V176.7949371z M423.1893616,145.5574188c-3.2350159-1.8559265-6.7560425-2.7838745-10.5702515-2.7838745h-81.7100525
	c-2.8598328,0-5.5649109,0.5591888-8.1055603,1.6715393c-2.5438538,1.1123352-4.771759,2.6198273-6.6772461,4.5285187
	c-1.9086914,1.9087067-3.4194031,4.1333923-4.5317383,6.6804657c-1.1123352,2.5406494-1.668335,5.2457123-1.668335,8.102356
	v75.5131836h7.9475708V163.756424c0-3.6005707,1.2735291-6.6740417,3.814209-9.2146912
	c2.5438538-2.5470886,5.6173096-3.8174133,9.2210999-3.8174133h81.7100525c2.4350891,0,4.65979,0.5856018,6.6736755,1.7507172
	c2.0142822,1.1651154,3.6037903,2.7510681,4.7721252,4.7653351l6.8352356-3.9753876
	C428.9914551,149.9803925,426.4211731,147.4136963,423.1893616,145.5574188z M524.7474976,197.0213928h47.6348267v25.1640625
	c0,2.7560577-0.9472046,5.04422-2.8930054,6.9842987c-1.9401245,1.9458008-4.2282715,2.8930206-6.9900513,2.8930206h-74.0427856
	c-2.7617493,0-5.0499268-0.9472198-6.9899902-2.8873138c-1.9458008-1.9514923-2.8930359-4.2396545-2.8930359-6.9900055v-58.2539215
	c0-2.7104187,0.9700623-5.0670471,2.8930359-6.984314c1.9400635-1.9458008,4.228241-2.8930054,6.9899902-2.8930054h75.8573608
	c1.7631836,0,3.4293823,0.4222412,4.9529419,1.2610474c1.5234985,0.8445129,2.6989746,2.0428009,3.6005249,3.6690521
	l0.3594971,0.6504974l6.8245239-3.9714661l-0.3423462-0.6276855c-1.5349731-2.7845917-3.7203979-4.9928589-6.4935913-6.5620575
	c-2.7846069-1.5634766-5.7745972-2.3566284-8.9015503-2.3566284h-75.8573608c-2.4194031,0-4.736084,0.4793243-6.8872986,1.4265289
	c-2.1455078,0.9300995-4.0456543,2.219696-5.6604919,3.8345337c-1.6091309,1.6034241-2.8987122,3.5035553-3.8459167,5.6604767
	c-0.9415283,2.1569214-1.4208374,4.4736176-1.4208374,6.8930206v58.2539215c0,2.4193878,0.4793091,4.7417908,1.4208374,6.8872986
	c0.9414978,2.1569214,2.2367859,4.0627594,3.84021,5.6604919c1.6091309,1.6148224,3.5149841,2.9044189,5.6661987,3.8402252
	C483.7203979,239.5206909,486.0370789,240,488.4564819,240h74.0427856c2.4136963,0,4.736084-0.4793091,6.8930054-1.4265289
	c2.1512451-0.9358063,4.0570679-2.2254028,5.6661987-3.8345337c1.6034546-1.6091156,2.8930054-3.5092621,3.8345337-5.6661835
	c0.9472046-2.1569214,1.4265137-4.4736023,1.4265137-6.8872986v-33.0898743h-55.5720215V197.0213928z M731.0235596,148.9736023
	c-1.9087524-1.9086914-4.1334229-3.4161835-6.680481-4.5285187c-2.5406494-1.1123505-5.2457275-1.6715393-8.102356-1.6715393
	h-79.4821777c-2.8630371,0-5.5681152,0.5591888-8.1087646,1.6715393c-2.5470581,1.1123352-4.7717285,2.6198273-6.680481,4.5285187
	c-1.9022827,1.9087067-3.4158325,4.1333923-4.5281372,6.6804657c-1.1123657,2.5406494-1.671875,5.2457123-1.671875,8.102356
	v54.530304c0,2.8562775,0.5595093,5.5617065,1.671875,8.102005c1.1123047,2.5474243,2.6258545,4.77211,4.5281372,6.6808167
	c1.9087524,1.9086914,4.1334229,3.4158325,6.680481,4.5281677c2.5406494,1.1123352,5.2457275,1.6718903,8.1087646,1.6718903
	h79.4821777c3.7058105,0,7.2004395-0.927948,10.4914551-2.7842255c3.2842407-1.8495026,5.8776855-4.4229736,7.786377-7.7072144
	l-6.9900513-3.9753876c-1.1715088,2.013916-2.7578125,3.6002197-4.7717285,4.7649841
	c-2.013916,1.1718903-4.1861572,1.7510681-6.5160522,1.7510681h-79.4821777c-3.6066284,0-6.6804199-1.2703247-9.2210693-3.8177643
	c-2.5471191-2.5402985-3.8174438-5.6141205-3.8174438-9.2143402v-20.5089111h92.5206909
	c2.8566284,0,5.5617065-0.5595551,8.102356-1.6718903c2.5470581-1.1123505,4.7717285-2.6194763,6.680481-4.528183
	c1.9086914-1.9087067,3.4158325-4.1333771,4.5281372-6.6740417c1.1123657-2.5470734,1.671936-5.2457123,1.671936-8.1087646
	V163.756424c0-2.8566437-0.5595703-5.5617065-1.671936-8.102356
	C734.4393921,153.1069946,732.932251,150.882309,731.0235596,148.9736023z M729.2728271,176.7949371
	c0,3.6002197-1.2703247,6.6740417-3.8109741,9.2211151c-2.5470581,2.5406494-5.6209106,3.8109741-9.2211304,3.8109741h-92.5206909
	V163.756424c0-3.6005707,1.2703247-6.6740417,3.8174438-9.2146912c2.5406494-2.5470886,5.6144409-3.8174133,9.2210693-3.8174133
	h79.4821777c3.6002197,0,6.6740723,1.2703247,9.2211304,3.8174133c2.5406494,2.5406494,3.8109741,5.6141205,3.8109741,9.2146912
	V176.7949371z M882.3709106,145.5574188c-3.2314453-1.8559265-6.7592773-2.7838745-10.5702515-2.7838745H790.093811
	c-2.8630981,0-5.5681152,0.5591888-8.1087646,1.6715393c-2.5471191,1.1123352-4.7717896,2.6198273-6.680481,4.5285187
	c-1.9022827,1.9087067-3.4161987,4.1333923-4.5285034,6.6804657c-1.1123657,2.5406494-1.6715698,5.2457123-1.6715698,8.102356
	v75.5131836h7.9508057V163.756424c0-3.6005707,1.2703247-6.6740417,3.8173828-9.2146912
	c2.5406494-2.5470886,5.614502-3.8174133,9.2211304-3.8174133h81.7068481c2.4350586,0,4.659729,0.5856018,6.6740112,1.7507172
	c2.013916,1.1651154,3.6002197,2.7510681,4.7717896,4.7653351l6.8319702-3.9753876
	C888.1761475,149.9803925,885.6027222,147.4136963,882.3709106,145.5574188z"/>
<path style="fill:#FF6D00;" d="M57.6062775,54.9529228h50.7161179v26.8330956c0,2.9500732-1.0128403,5.3951492-3.09272,7.4750366
	c-2.0827408,2.0827408-4.5278244,3.0955811-7.47789,3.0955811h-78.830246c-2.9500723,0-5.3951502-1.0128403-7.4778891-3.0955811
	c-2.0798864-2.0798874-3.0927248-4.5249634-3.0927248-7.4750366V19.7689018c0-2.9472179,1.0128384-5.3951502,3.0927248-7.4778891
	c2.0798855-2.0798855,4.5278168-3.0927248,7.4778891-3.0927248h80.7617722c1.8858719,0,3.6661911,0.4564905,5.2952881,1.3552074
	c1.6119843,0.8930092,2.90728,2.2111263,3.848793,3.9172611l0.3594818,0.6533518l7.1897278-4.1768904l-0.3452148-0.6248217
	c-1.6205444-2.9557772-3.9400864-5.2981453-6.893013-6.9700422c-2.9529266-1.6633381-6.1340942-2.5078459-9.4550629-2.5078459
	H18.9215412c-2.5677605,0-5.0299578,0.5078459-7.3209705,1.5092723C9.3209696,3.3523538,7.2981453,4.724679,5.5891585,6.4336662
	c-1.7118404,1.7118406-3.0870187,3.7346649-4.0827389,6.0114126C0.5078459,14.7332382,0,17.198288,0,19.7689018v62.0171165
	c0,2.5677643,0.5078459,5.032814,1.5064194,7.3209686c0.9957204,2.2767487,2.3708987,4.2995758,4.0827389,6.0114136
	c1.7061338,1.708992,3.7289586,3.0841675,6.0114121,4.0827408c2.2853069,0.9985733,4.7475033,1.5064163,7.3209705,1.5064163
	h78.830246c2.57061,0,5.0356598-0.507843,7.323822-1.5064163c2.2767487-0.9957199,4.2995682-2.3708954,6.0114136-4.0827408
	c1.7118378-1.7146912,3.0841599-3.7375183,4.0798798-6.0114136c1.0014267-2.2938614,1.5092773-4.7560577,1.5092773-7.3209686
	v-35.184021H57.6062775V54.9529228z M281.4179688,6.4222541c-1.9743042-1.9771757-4.2824402-3.5406563-6.9158325-4.6932955
	C271.8659058,0.5763195,269.0670471,0,266.0998535,0h-82.353775c-3.8430786,0-7.4693298,0.9614836-10.8701935,2.8815978
	c-3.4037018,1.9229672-6.0399323,4.5848789-7.905838,7.9885883l7.0813141,4.1169758
	c1.2068481-2.0855923,2.8559113-3.7318125,4.9415131-4.9415121c2.0855865-1.2068481,4.3366547-1.811698,6.7532043-1.811698
	h82.353775c3.7318115,0,6.9187012,1.3181171,9.5549316,3.9543505c2.6333618,2.6333809,3.9514771,5.8202562,3.9514771,9.5520697
	v22.0713272c-1.4265137-1.9771767-3.3209534-3.5948677-5.6804504-4.8587761
	c-2.3623352-1.261055-4.9700317-1.8944359-7.8259583-1.8944359h-82.353775c-2.9643402,0-5.7631989,0.5763206-8.3994293,1.7289581
	c-2.6362305,1.1526413-4.9415131,2.7189751-6.9186859,4.6932983c-1.9743195,1.9771729-3.5406647,4.2824516-4.6932983,6.9186859
	s-1.7289581,5.4350929-1.7289581,8.3994293v19.4379425c0,2.9643402,0.5763245,5.7631989,1.7289581,8.3994293
	c1.1526337,2.6362381,2.7189789,4.9415131,4.6932983,6.9186935c1.9771729,1.9743195,4.2824554,3.540657,6.9186859,4.6932907
	c2.6362305,1.1526413,5.4350891,1.7289581,8.3994293,1.7289581h82.353775c2.9671936,0,5.7660522-0.5763168,8.4022827-1.7289581
	c2.6333923-1.1526337,4.9415283-2.7189713,6.9158325-4.6932907c1.9771729-1.9771805,3.5435181-4.2824554,4.696167-6.9186935
	c1.1526184-2.6362305,1.7289429-5.4350891,1.7289429-8.3994293V21.7403717c0-2.9643383-0.5763245-5.7660494-1.7289429-8.3994303
	C284.9614868,10.7047071,283.3951416,8.3994293,281.4179688,6.4222541z M279.6062622,78.2368011
	c0,3.7318115-1.3181152,6.9158401-3.9514771,9.5520706c-2.6362305,2.6362381-5.8231201,3.9514999-9.5549316,3.9514999h-82.353775
	c-3.7346649,0-6.9158325-1.3152618-9.552063-3.9514999c-2.6362457-2.6362305-3.954361-5.8202591-3.954361-9.5520706V58.7988586
	c0-3.7318115,1.3181152-6.9158325,3.954361-9.5520668c2.6362305-2.6362343,5.8173981-3.9543533,9.552063-3.9543533h82.353775
	c3.7318115,0,6.9187012,1.318119,9.5549316,3.9543533c2.6333618,2.6362343,3.9514771,5.8202553,3.9514771,9.5520668V78.2368011z
	 M431.9600525,51.7175446c-1.9743042-1.9771729-4.2824402-3.5406532-6.9158325-4.6932945
	c-2.6362305-1.1526375-5.4350891-1.7318115-8.4022827-1.7318115H334.288147c-3.7346497,0-6.9158325-1.3152618-9.552063-3.9514961
	s-3.9543457-5.8202591-3.9543457-9.5520687v-10.048502c0-3.7318134,1.3181152-6.9186888,3.9543457-9.5520697
	c2.6362305-2.6362333,5.8174133-3.9543505,9.552063-3.9543505h84.6619263c2.5249634,0,4.8302307,0.6048498,6.9158325,1.811698
	c2.0856018,1.2096996,3.7318115,2.8559198,4.9414978,4.9415121l7.0841675-4.1169758
	c-1.9771729-3.4037094-4.6419373-6.0656209-7.9885864-7.9885883C426.5506287,0.9614836,422.9015808,0,418.9500732,0H334.288147
	c-2.964325,0-5.7631836,0.5763195-8.3994141,1.7289586s-4.9415283,2.7161198-6.9187012,4.6932955
	c-1.9743042,1.9771752-3.5406494,4.2824531-4.6932983,6.9186873c-1.1526184,2.6333809-1.7289429,5.435092-1.7289429,8.3994303
	v10.048502c0,2.9643345,0.5763245,5.7631931,1.7289429,8.3994274c1.1526489,2.6362343,2.7189941,4.9415131,4.6932983,6.9186897
	c1.9771729,1.9743233,4.2824707,3.540657,6.9187012,4.6932945s5.4350891,1.7289581,8.3994141,1.7289581h82.3537903
	c3.7318115,0,6.9187012,1.318119,9.5549316,3.9543495c2.6333618,2.6333809,3.9514771,5.8202591,3.9514771,9.5520668v11.2011414
	c0,3.7318115-1.3181152,6.9158401-3.9514771,9.5520706c-2.6362305,2.6362381-5.8231201,3.9514999-9.5549316,3.9514999h-84.6590576
	c-2.4165344,0-4.6676025-0.6019974-6.7532043-1.8116989c-2.0884399-1.2068481-3.7346802-2.8530655-4.9415283-4.9386597
	l-7.2467651,4.1169739c1.9771729,3.4037094,4.6647644,6.0684738,8.0713196,7.9885941
	c3.4008484,1.922966,7.024231,2.8815918,10.8701782,2.8815918h84.6590576c2.9671936,0,5.7660522-0.5763168,8.4022827-1.7289581
	c2.6333923-1.1526337,4.9415283-2.7189713,6.9158325-4.6932907c1.9771729-1.9771805,3.5435181-4.2824554,4.696167-6.9186935
	c1.1526184-2.6362305,1.7289429-5.4350891,1.7289429-8.3994293V67.0356598c0-2.9643326-0.5763245-5.7660446-1.7289429-8.3994255
	C435.5035706,56,433.9372253,53.6947212,431.9600525,51.7175446z M731.8858643,6.4222541
	c-1.9743042-1.9771757-4.2796021-3.5406563-6.9158325-4.6932955S719.5321045,0,716.5706177,0h-82.3566284
	c-2.9614868,0-5.7631836,0.5763195-8.3994141,1.7289586s-4.9415283,2.7161198-6.9158325,4.6932955
	c-1.9800415,1.9771752-3.5435181,4.2824531-4.696167,6.9186873c-1.1526489,2.6333809-1.7289429,5.435092-1.7289429,8.3994303
	v56.4964294c0,2.9643402,0.5762939,5.7631989,1.7289429,8.3994293c1.1526489,2.6362381,2.7161255,4.9415131,4.696167,6.9186935
	c1.9743042,1.9743195,4.2796021,3.540657,6.9158325,4.6932907c2.6362305,1.1526413,5.4379272,1.7289581,8.3994141,1.7289581
	h82.3566284c2.9614868,0,5.7631836-0.5763168,8.3994141-1.7289581c2.6362305-1.1526337,4.9415283-2.7189713,6.9158325-4.6932907
	c1.9800415-1.9771805,3.5435181-4.2824554,4.696167-6.9186935c1.1526489-2.6362305,1.7289429-5.4350891,1.7289429-8.3994293
	V21.7403717c0-2.9643383-0.5762939-5.7660494-1.7289429-8.3994303
	C735.4293823,10.7047071,733.8659058,8.3994293,731.8858643,6.4222541z M730.0770264,78.2368011
	c0,3.7318115-1.3181152,6.9158401-3.9543457,9.5520706c-2.6362305,2.6362381-5.8202515,3.9514999-9.552063,3.9514999h-82.3566284
	c-3.7318115,0-6.9158325-1.3152618-9.552063-3.9514999c-2.6362305-2.6362305-3.9543457-5.8202591-3.9543457-9.5520706V21.7403717
	c0-3.7318134,1.3181152-6.9186888,3.9543457-9.5520697c2.6362305-2.6362333,5.8202515-3.9543505,9.552063-3.9543505h82.3566284
	c3.7318115,0,6.9158325,1.3181171,9.552063,3.9543505c2.6362305,2.6333809,3.9543457,5.8202562,3.9543457,9.5520697V78.2368011z
	 M885.8887329,24.1283875c-1.9743042-4.7760334-4.8330688-8.9757481-8.5648804-12.599144
	c-3.6234131-3.6233945-7.8231201-6.4507842-12.5991821-8.4821682C859.9486694,1.0156919,854.8701782,0,849.4893188,0h-64.7304077
	c-2.9614868,0-5.7631836,0.5763195-8.3994141,1.7289586s-4.9415283,2.7161198-6.9158325,4.6932955
	c-1.9800415,1.9771752-3.5435181,4.2824531-4.696167,6.9186873c-1.1526489,2.6333809-1.7289429,5.435092-1.7289429,8.3994303
	v78.2368011h8.2339478V21.7403717c0-3.7318134,1.3181152-6.9186888,3.9543457-9.5520697
	c2.6362305-2.6362333,5.8202515-3.9543505,9.552063-3.9543505h64.7304077c4.2852783,0,8.319519,0.8245363,12.1083984,2.4707556
	s7.0812988,3.8716125,9.8829956,6.6704702c2.7960205,2.801712,5.0214233,6.0941525,6.6704712,9.8830261
	c1.6433716,3.7888718,2.4707642,7.8231106,2.4707642,12.1055622v60.6134071h8.2339478V39.3637657
	C888.855896,33.985733,887.8687744,28.9044228,885.8887329,24.1283875z M478.3405762,0.0078459h-7.1287231v81.1604843
	c0,2.5709763,0.5260315,4.9664764,1.5192566,7.245369c0.9932251,2.2788849,2.3373718,4.2653351,4.0317383,6.0185471
	c1.7528381,1.6943588,3.7396545,3.0381546,6.0181885,4.0317383c2.2788696,0.9932251,4.6747437,1.518898,7.245697,1.518898
	h14.9582825v-7.1283875h-14.9582825c-3.2139587,0-5.9600525-1.1686859-8.2389221-3.4475708
	c-2.2789001-2.2785339-3.4472351-5.0249634-3.4472351-8.2385941v-60.59272h104.7478638v-7.1287441H478.3405762V0.0078459z"/>
</svg>
